<svg width="39" height="10" viewBox="0 0 39 10" fill="none" xmlns="http://www.w3.org/2000/svg">
<path d="M38.1732 0C34.3238 0 32.3992 -8.9407e-07 30.6555 0.675705C30.4782 0.744915 30.3026 0.818679 30.1298 0.896996C28.428 1.67196 27.0809 3.04887 24.3879 5.80178C22.1219 8.1194 20.9889 9.27775 19.5824 9.35789C19.4442 9.36608 19.3058 9.36608 19.1676 9.35789C17.761 9.27775 16.6281 8.1194 14.3621 5.80178L14.3586 5.79824C11.6677 3.04769 10.3215 1.67163 8.62019 0.896996C8.44701 0.818679 8.27164 0.744915 8.09418 0.675705C6.3508 -8.9407e-07 4.42605 0 0.576553 0H38.1732Z" fill="#F7921C"/>
</svg>
